<?xml version="1.0" encoding="iso-8859-1"?>
<!-- Generator: Adobe Illustrator 19.0.0, SVG Export Plug-In . SVG Version: 6.00 Build 0)  -->
<svg version="1.1" id="Layer_1" xmlns="http://www.w3.org/2000/svg" xmlns:xlink="http://www.w3.org/1999/xlink" x="0px" y="0px"
	 viewBox="0 0 495 495" style="enable-background:new 0 0 495 495;" xml:space="preserve">
<g>
	<path style="fill:#C70024;" d="M406.902,377.013c-6.317,1.987-13.035,3.063-20,3.063s-13.683-1.076-20-3.063V455h40V377.013z"/>
	<polygon style="fill:#B3D8F4;" points="146.22,405 166.22,405 166.22,332 131.318,332 131.318,292 166.22,292 166.22,259 
		131.318,259 131.318,219 166.22,219 166.22,186 131.318,186 131.318,146 166.22,146 166.22,113 131.318,113 131.318,73 166.22,73 
		166.22,0 41.318,0 41.318,455 146.22,455 	"/>
	<polygon style="fill:#96C8EF;" points="166.22,405 186.22,405 186.22,455 291.122,455 291.122,332 166.22,332 	"/>
	<rect x="166.22" y="186" style="fill:#96C8EF;" width="124.902" height="33"/>
	<rect x="166.22" y="259" style="fill:#96C8EF;" width="124.902" height="33"/>
	<rect x="166.22" y="113" style="fill:#96C8EF;" width="124.902" height="33"/>
	<rect x="166.22" style="fill:#96C8EF;" width="124.902" height="73"/>
	<rect x="146.22" y="405" style="fill:#004FAC;" width="40" height="50"/>
	<rect y="455" style="fill:#FF5023;" width="495" height="40"/>
	<rect x="131.318" y="292" style="fill:#004FAC;" width="159.804" height="40"/>
	<rect x="131.318" y="219" style="fill:#004FAC;" width="159.804" height="40"/>
	<rect x="131.318" y="146" style="fill:#004FAC;" width="159.804" height="40"/>
	<rect x="131.318" y="73" style="fill:#004FAC;" width="159.804" height="40"/>
	<path style="fill:#FFDAAA;" d="M386.902,146c-36.823,0-66.78,29.958-66.78,66.78v100.515c0,29.858,19.698,55.198,46.78,63.718
		c6.317,1.987,13.035,3.063,20,3.063V146z"/>
	<path style="fill:#FFC477;" d="M386.902,380.075c6.965,0,13.683-1.076,20-3.063c27.082-8.52,46.78-33.86,46.78-63.718V212.78
		c0-36.823-29.957-66.78-66.78-66.78V380.075z"/>
</g>
<g>
</g>
<g>
</g>
<g>
</g>
<g>
</g>
<g>
</g>
<g>
</g>
<g>
</g>
<g>
</g>
<g>
</g>
<g>
</g>
<g>
</g>
<g>
</g>
<g>
</g>
<g>
</g>
<g>
</g>
</svg>
