<?xml version="1.0" encoding="iso-8859-1"?>
<!-- Generator: Adobe Illustrator 19.0.0, SVG Export Plug-In . SVG Version: 6.00 Build 0)  -->
<svg version="1.1" id="Layer_1" xmlns="http://www.w3.org/2000/svg" xmlns:xlink="http://www.w3.org/1999/xlink" x="0px" y="0px"
	 viewBox="0 0 495 495" style="enable-background:new 0 0 495 495;" xml:space="preserve">
<g>
	<polygon style="fill:#FFA733;" points="371.25,405.84 371.25,332 313.333,332 313.333,292 371.25,292 371.25,259 313.333,259 
		313.333,219 371.25,219 371.25,186 313.333,186 313.333,146 371.25,146 371.25,79.42 247.5,79.42 247.5,495 351.25,495 
		351.25,405.84 	"/>
	<polygon style="fill:#FF9811;" points="371.25,79.42 371.25,146 429.167,146 429.167,186 371.25,186 371.25,219 429.167,219 
		429.167,259 371.25,259 371.25,292 429.167,292 429.167,332 371.25,332 371.25,405.84 391.25,405.84 391.25,495 495,495 495,79.42 
			"/>
	<polygon style="fill:#B3D8F4;" points="123.75,405.84 123.75,332 65.833,332 65.833,292 123.75,292 123.75,259 65.833,259 
		65.833,219 123.75,219 123.75,186 65.833,186 65.833,146 123.75,146 123.75,113 65.833,113 65.833,73 123.75,73 123.75,0 0,0 
		0,495 103.75,495 103.75,405.84 	"/>
	<polygon style="fill:#96C8EF;" points="247.5,0 123.75,0 123.75,73 181.667,73 181.667,113 123.75,113 123.75,146 181.667,146 
		181.667,186 123.75,186 123.75,219 181.667,219 181.667,259 123.75,259 123.75,292 181.667,292 181.667,332 123.75,332 
		123.75,405.84 143.75,405.84 143.75,495 247.5,495 	"/>
	<rect x="351.25" y="405.84" style="fill:#FF5023;" width="40" height="89.16"/>
	<rect x="313.333" y="292" style="fill:#FF5023;" width="115.834" height="40"/>
	<rect x="313.333" y="219" style="fill:#FF5023;" width="115.834" height="40"/>
	<rect x="313.333" y="146" style="fill:#FF5023;" width="115.834" height="40"/>
	<rect x="103.75" y="405.84" style="fill:#005ECE;" width="40" height="89.16"/>
	<rect x="65.833" y="292" style="fill:#005ECE;" width="115.834" height="40"/>
	<rect x="65.833" y="219" style="fill:#005ECE;" width="115.834" height="40"/>
	<rect x="65.833" y="146" style="fill:#005ECE;" width="115.834" height="40"/>
	<rect x="65.833" y="73" style="fill:#005ECE;" width="115.834" height="40"/>
</g>
<g>
</g>
<g>
</g>
<g>
</g>
<g>
</g>
<g>
</g>
<g>
</g>
<g>
</g>
<g>
</g>
<g>
</g>
<g>
</g>
<g>
</g>
<g>
</g>
<g>
</g>
<g>
</g>
<g>
</g>
</svg>
