<?xml version="1.0" encoding="iso-8859-1"?>
<!-- Generator: Adobe Illustrator 19.0.0, SVG Export Plug-In . SVG Version: 6.00 Build 0)  -->
<svg version="1.1" id="Layer_1" xmlns="http://www.w3.org/2000/svg" xmlns:xlink="http://www.w3.org/1999/xlink" x="0px" y="0px"
	 viewBox="0 0 512.007 512.007" style="enable-background:new 0 0 512.007 512.007;" xml:space="preserve">
<path style="fill:#FFC550;" d="M464.981,78.387c0-16.043-6.115-32.075-18.377-44.343c-12.22-12.225-28.268-18.377-44.305-18.377
	H109.699c-16.038,0-32.085,6.153-44.305,18.377c-12.261,12.268-18.376,28.3-18.376,44.343v313.47h417.963L464.981,78.387
	L464.981,78.387z"/>
<g>
	<rect x="26.114" y="391.858" style="fill:#34495E;" width="459.776" height="41.767"/>
	<rect x="263.322" y="99.301" style="fill:#34495E;" width="180.736" height="114.893"/>
	<rect x="67.929" y="99.301" style="fill:#34495E;" width="180.736" height="114.893"/>
	<path style="fill:#34495E;" d="M103.453,57.482c0,8.067-6.547,14.611-14.624,14.611c-8.076,0-14.652-6.543-14.652-14.611
		S80.754,42.86,88.829,42.86C96.905,42.86,103.453,49.417,103.453,57.482z"/>
	<path style="fill:#34495E;" d="M437.823,57.482c0,8.067-6.542,14.611-14.652,14.611c-8.076,0-14.623-6.543-14.623-14.611
		s6.547-14.623,14.623-14.623C431.281,42.86,437.823,49.417,437.823,57.482z"/>
</g>
<rect x="151.518" y="36.569" style="fill:#F6F8FB;" width="208.981" height="41.818"/>
<g>
	<rect x="130.594" y="235.1" style="fill:#F7B64D;" width="250.795" height="156.774"/>
	<rect x="47.019" y="313.487" style="fill:#F7B64D;" width="83.581" height="78.375"/>
	<rect x="381.406" y="313.487" style="fill:#F7B64D;" width="83.582" height="78.375"/>
</g>
<g>
	<polygon style="fill:#FFD160;" points="350.039,266.464 161.961,266.464 130.599,235.093 381.401,235.093 	"/>
	<rect x="161.963" y="266.469" style="fill:#FFD160;" width="188.075" height="125.389"/>
</g>
<g>
	<rect x="177.63" y="291.523" style="fill:#34495E;" width="156.757" height="8.381"/>
	<rect x="177.63" y="308.231" style="fill:#34495E;" width="156.757" height="8.356"/>
	<rect x="177.63" y="324.973" style="fill:#34495E;" width="156.757" height="8.366"/>
	<rect x="177.63" y="341.681" style="fill:#34495E;" width="156.757" height="8.366"/>
	<rect x="177.63" y="358.424" style="fill:#34495E;" width="156.757" height="8.349"/>
</g>
<g>
	<rect x="67.929" y="334.394" style="fill:#F6F8FB;" width="62.672" height="36.562"/>
	<rect x="381.406" y="334.394" style="fill:#F6F8FB;" width="62.672" height="36.562"/>
</g>
<path style="fill:#283A4D;" d="M498.429,99.302h-8.38v-2.137c0-2.758-1.077-5.391-3.048-7.352c-1.981-1.971-4.589-3.077-7.4-3.077
	h-14.618v-8.347h14.618c5.023,0,9.762,1.958,13.319,5.511c3.548,3.548,5.511,8.248,5.511,13.266v2.137H498.429z"/>
<rect id="SVGCleanerId_0" x="476.484" y="99.301" style="fill:#34495E;" width="35.523" height="94.037"/>
<path style="fill:#283A4D;" d="M498.429,99.302h-8.38v-2.137c0-2.758-1.077-5.391-3.048-7.352c-1.981-1.971-4.589-3.077-7.4-3.077
	h-14.618v-8.347h14.618c5.023,0,9.762,1.958,13.319,5.511c3.548,3.548,5.511,8.248,5.511,13.266v2.137H498.429z"/>
<g>
	<rect id="SVGCleanerId_0_1_" x="476.484" y="99.301" style="fill:#34495E;" width="35.523" height="94.037"/>
</g>
<path style="fill:#283A4D;" d="M13.571,99.302h8.381v-2.137c0-2.758,1.075-5.391,3.048-7.352c1.981-1.971,4.591-3.077,7.4-3.077
	H47.02v-8.347H32.401c-5.014,0-9.762,1.958-13.319,5.511c-3.548,3.548-5.509,8.248-5.509,13.266v2.137H13.571z"/>
<rect y="99.301" style="fill:#34495E;" width="35.524" height="94.037"/>
<rect x="57.472" y="433.62" style="fill:#283A4D;" width="73.129" height="62.72"/>
<g>
	<rect x="65.212" y="433.62" style="fill:#34495E;" width="3.157" height="62.72"/>
	<rect x="76.114" y="433.62" style="fill:#34495E;" width="3.166" height="62.72"/>
	<rect x="87.02" y="433.62" style="fill:#34495E;" width="3.133" height="62.72"/>
	<rect x="97.929" y="433.62" style="fill:#34495E;" width="3.115" height="62.72"/>
	<rect x="108.829" y="433.62" style="fill:#34495E;" width="3.133" height="62.72"/>
	<rect x="119.706" y="433.62" style="fill:#34495E;" width="3.157" height="62.72"/>
</g>
<rect x="381.406" y="433.62" style="fill:#283A4D;" width="73.129" height="62.72"/>
<g>
	<rect x="389.137" y="433.62" style="fill:#34495E;" width="3.157" height="62.72"/>
	<rect x="400.043" y="433.62" style="fill:#34495E;" width="3.133" height="62.72"/>
	<rect x="410.948" y="433.62" style="fill:#34495E;" width="3.115" height="62.72"/>
	<rect x="421.854" y="433.62" style="fill:#34495E;" width="3.13" height="62.72"/>
	<rect x="432.742" y="433.62" style="fill:#34495E;" width="3.133" height="62.72"/>
	<rect x="443.631" y="433.62" style="fill:#34495E;" width="3.162" height="62.72"/>
</g>
<g style="opacity:0.3;">
	<polygon style="fill:#5D6D7E;" points="105.634,99.302 67.929,99.302 67.929,214.193 220.561,214.193 	"/>
	<polygon style="fill:#5D6D7E;" points="301.029,99.302 263.328,99.302 263.328,214.193 415.962,214.193 	"/>
</g>
<g>
</g>
<g>
</g>
<g>
</g>
<g>
</g>
<g>
</g>
<g>
</g>
<g>
</g>
<g>
</g>
<g>
</g>
<g>
</g>
<g>
</g>
<g>
</g>
<g>
</g>
<g>
</g>
<g>
</g>
</svg>
