<?xml version="1.0" encoding="UTF-8"?>
<svg width="73px" height="71px" viewBox="0 0 73 71" version="1.1" xmlns="http://www.w3.org/2000/svg" xmlns:xlink="http://www.w3.org/1999/xlink">
    <!-- Generator: Sketch 47 (45396) - http://www.bohemiancoding.com/sketch -->
    <title>Logo</title>
    <desc>Created with Sketch.</desc>
    <defs></defs>
    <g id="Welcome---Before-Sign-In" stroke="none" stroke-width="1" fill="none" fill-rule="evenodd">
        <g id="Welcome---Before-Sign-In-Desktop-HD" transform="translate(-80.000000, -40.000000)">
            <g id="Navigation---Before-Sign-In" transform="translate(80.000000, 37.000000)">
                <g id="Logo">
                    <g>
                        <g id="planet-earth" transform="translate(29.818587, 44.887379) scale(-1, 1) translate(-29.818587, -44.887379) translate(0.818587, 15.887379)" fill-rule="nonzero" fill="#FFFFFF">
                            <path d="M8.60237264,14.7200835 L3.68555073,14.7200835 C1.33947997,18.8673142 0,23.6493446 0,28.7419882 C0,28.9295452 0.00350886252,29.1162048 0.00713091416,29.3028644 L10.3002093,29.3028644 L10.3002093,16.402712 C10.3002093,15.4749106 9.5385598,14.7200835 8.60237264,14.7200835 Z" id="Shape"></path>
                            <path d="M53.5985542,13.5983311 L43.1250523,13.5983311 L43.1250523,21.4505977 L37.4655966,21.4505977 L37.4655966,24.8158549 L30.6742498,24.8158549 L30.6742498,29.3028644 L43.1250523,29.3028644 L43.1250523,39.3986358 L28.9764131,39.3986358 C26.7919764,39.3986358 25.0147941,41.1598993 25.0147941,43.3247692 C25.0147941,45.4896391 26.7919764,47.2509025 28.9764131,47.2509025 L30.6742498,47.2509025 L30.6742498,57.4085947 C36.6131694,57.0683672 42.0717144,54.9559953 46.5207257,51.5964591 L46.5207257,33.7898739 L57.5061819,33.7898739 C57.7994549,32.1509937 57.9528262,30.4643268 57.9528262,28.7419882 C57.9528262,23.1834808 56.3575388,17.9949274 53.5985542,13.5983311 Z" id="Shape"></path>
                            <path d="M49.9163991,37.1551311 L49.9163991,48.5906114 C53.0018212,45.3945145 55.3487974,41.4930597 56.688051,37.1551311 L49.9163991,37.1551311 Z" id="Shape"></path>
                            <path d="M37.2061672,10.2330739 L51.1293337,10.2330739 C47.7041179,6.21080641 43.184703,3.13462486 38.0250904,1.45513719 C38.0274674,1.53926862 38.0315422,1.62306352 38.0315422,1.70775583 C38.0315422,6.65602993 33.9694113,10.6817749 28.9764131,10.6817749 C23.9834149,10.6817749 19.921284,6.65602993 19.921284,1.70775583 C19.921284,1.62306352 19.9253588,1.53926862 19.9277358,1.45513719 C14.2983884,3.2875197 9.43080376,6.7825636 5.91548946,11.3548263 L8.60237264,11.3548263 C11.4109341,11.3548263 13.6958828,13.6193078 13.6958828,16.402712 L13.6958828,36.0333787 L10.3002093,36.0333787 L10.3002093,32.6681216 L0.27074836,32.6681216 C0.681058897,35.6416628 1.54955897,38.4701614 2.80527899,41.0812644 L16.5256106,41.0812644 L16.5256106,54.6786981 C19.815339,56.2325495 23.4471249,57.1889556 27.2785764,57.4084825 L27.2785764,50.4201895 C24.0374061,49.6586318 21.6191207,46.7664177 21.6191207,43.3247692 C21.6191207,39.3042965 24.9196021,36.0333787 28.9764131,36.0333787 L39.7293789,36.0333787 L39.7293789,32.6681216 L23.882903,32.6681216 L23.882903,29.3028644 L27.2785764,29.3028644 L27.2785764,21.4505977 L34.0699232,21.4505977 L34.0699232,18.0853406 L39.7293789,18.0853406 L39.7293789,13.5983311 L37.2061672,13.5983311 L37.2061672,10.2330739 Z M28.9764131,18.0853406 L22.1850663,18.0853406 L22.1850663,14.7200835 L28.9764131,14.7200835 L28.9764131,18.0853406 Z" id="Shape"></path>
                            <path d="M34.5141905,0.55122912 C32.7213881,0.20729984 30.8705197,0.0251272533 28.9764131,0.0251272533 C27.0823065,0.0251272533 25.2313249,0.20729984 23.4386357,0.55122912 C23.3592901,0.924660488 23.3169574,1.31132853 23.3169574,1.70775583 C23.3169574,4.80053932 25.8557892,7.31651773 28.9764131,7.31651773 C32.097037,7.31651773 34.6358688,4.80042714 34.6358688,1.70775583 C34.6358688,1.31132853 34.593536,0.924660488 34.5141905,0.55122912 Z" id="Shape"></path>
                            <path d="M4.71534529,44.4465216 C6.9090635,47.7682547 9.77818115,50.6116727 13.1299372,52.7857409 L13.1299372,44.4465216 L4.71534529,44.4465216 Z" id="Shape"></path>
                        </g>
                        <g id="placeholder" transform="translate(60.973793, 16.033291) rotate(45.000000) translate(-60.973793, -16.033291) translate(51.473793, 3.033291)" fill-rule="nonzero" fill="#F8F5F5">
                            <path d="M9.31919226,0 C4.19029376,0 0.0176254288,4.13529225 0.0176254288,9.21824936 C0.0176254288,10.9663096 0.51584768,12.6693456 1.45885877,14.1427437 L8.6051598,25.3101308 C8.76014202,25.5526186 9.02958823,25.6993862 9.31919226,25.6993862 C9.60879629,25.6993862 9.8782425,25.5526186 10.0332247,25.3100806 L17.1795257,14.1426935 C18.1225368,12.6693456 18.6207591,10.9663096 18.6207591,9.21824936 C18.6207591,4.13529225 14.4480908,0 9.31919226,0 Z M9.31919226,14.2463945 C6.52171256,14.2463945 4.24560114,11.990671 4.24560114,9.21824936 C4.24560114,6.44582769 6.52171256,4.19010422 9.31919226,4.19010422 C12.116672,4.19010422 14.3927834,6.44582769 14.3927834,9.21824936 C14.3927834,11.990671 12.116672,14.2463945 9.31919226,14.2463945 Z" id="Shape"></path>
                        </g>
                    </g>
                </g>
            </g>
        </g>
    </g>
</svg>