<?xml version="1.0" encoding="iso-8859-1"?>
<!-- Generator: Adobe Illustrator 19.0.0, SVG Export Plug-In . SVG Version: 6.00 Build 0)  -->
<svg version="1.1" id="Layer_1" xmlns="http://www.w3.org/2000/svg" xmlns:xlink="http://www.w3.org/1999/xlink" x="0px" y="0px"
	 viewBox="0 0 512 512" style="enable-background:new 0 0 512 512;" xml:space="preserve">
<circle style="fill:#273B7A;" cx="256" cy="256" r="256"/>
<path style="fill:#121149;" d="M506.142,310.608l-107.92-107.922l-24.066,22.063L271.291,121.508l-109.532,11.807l-16.951,8.045
	l-10.056,6.322l-24.259,24.195l24.545,63.15l62.348,168.665L301.635,507.94C403.427,489.624,484.299,411.129,506.142,310.608z"/>
<path style="fill:#71E2EF;" d="M197.387,90.803c-57.601,0-104.296,46.695-104.296,104.296c0,72.692,104.296,208.593,104.296,208.593
	S301.684,271.363,301.684,195.1C301.684,137.499,254.988,90.803,197.387,90.803z M197.387,238.316
	c-23.678,0-42.874-19.196-42.874-42.874s19.194-42.874,42.874-42.874c23.68,0,42.874,19.194,42.874,42.874
	S221.065,238.316,197.387,238.316z"/>
<path style="fill:#38C6D9;" d="M197.387,90.803v61.768c23.678,0,42.872,19.196,42.872,42.874s-19.194,42.872-42.872,42.874v165.376
	c0.028-0.034,104.296-132.337,104.296-208.593C301.684,137.499,254.988,90.803,197.387,90.803z"/>
<rect x="227.556" y="256" style="fill:#FEE187;" width="170.667" height="142.222"/>
<g>
	<rect x="312.32" y="256" style="fill:#FFC61B;" width="85.907" height="142.222"/>
	<path style="fill:#FFC61B;" d="M215.235,284.444h195.308c7.932,0,13.533-7.771,11.024-15.296l-20.697-62.092
		c-1.583-4.746-6.023-7.945-11.024-7.945H235.932c-5.003,0-9.444,3.201-11.024,7.945l-20.697,62.092
		C201.702,276.673,207.303,284.444,215.235,284.444z"/>
</g>
<path style="fill:#EAA22F;" d="M421.567,269.148l-20.697-62.092c-1.583-4.746-6.023-7.945-11.024-7.945h-77.531v85.333h98.228
	C418.475,284.444,424.076,276.673,421.567,269.148z"/>
<rect x="284.444" y="341.333" style="fill:#E09112;" width="56.889" height="56.889"/>
<rect x="312.32" y="341.333" style="fill:#FF5419;" width="29.018" height="56.889"/>
<g>
	<rect x="256" y="298.667" style="fill:#386895;" width="28.444" height="28.444"/>
	<rect x="341.333" y="298.667" style="fill:#386895;" width="28.444" height="28.444"/>
</g>
<g>
</g>
<g>
</g>
<g>
</g>
<g>
</g>
<g>
</g>
<g>
</g>
<g>
</g>
<g>
</g>
<g>
</g>
<g>
</g>
<g>
</g>
<g>
</g>
<g>
</g>
<g>
</g>
<g>
</g>
</svg>
